<?xml version="1.0" standalone="no"?>
<!DOCTYPE svg PUBLIC "-//W3C//DTD SVG 20010904//EN"
 "http://www.w3.org/TR/2001/REC-SVG-20010904/DTD/svg10.dtd">
<svg version="1.0" xmlns="http://www.w3.org/2000/svg"
 width="767.000000pt" height="767.000000pt" viewBox="0 0 767.000000 767.000000"
 preserveAspectRatio="xMidYMid meet">
<metadata>
Created by potrace 1.11, written by Peter Selinger 2001-2013
</metadata>
<g transform="translate(0.000000,767.000000) scale(0.100000,-0.100000)"
fill="#000000" stroke="none">
<path d="M1706 7655 c-433 -87 -729 -450 -727 -895 1 -291 155 -577 396 -738
165 -109 322 -153 526 -147 164 6 309 54 455 151 238 158 385 429 393 725 10
398 -248 762 -623 878 -99 30 -109 32 -236 36 -71 2 -141 -2 -184 -10z"/>
<path d="M3218 7615 c-29 -6 -70 -19 -90 -29 -93 -45 -191 -192 -204 -306 -12
-97 -8 -1110 5 -1173 29 -156 155 -290 296 -314 28 -5 313 -8 635 -8 616 1
621 2 700 48 86 50 168 171 188 278 12 60 12 1128 0 1188 -24 129 -125 259
-235 302 -58 22 -61 22 -650 24 -393 0 -610 -3 -645 -10z"/>
<path d="M5124 7609 c-117 -36 -210 -138 -250 -274 -16 -54 -18 -117 -19 -605
-1 -399 3 -563 12 -613 29 -158 132 -279 274 -320 34 -9 183 -12 634 -12 325
1 607 5 627 9 130 25 260 171 286 322 5 28 8 304 7 615 -1 609 0 591 -55 700
-44 85 -143 165 -230 185 -19 4 -304 8 -634 9 -533 0 -604 -1 -652 -16z"/>
<path d="M1255 5685 c-143 -43 -247 -163 -275 -317 -7 -37 -10 -260 -8 -625 3
-518 5 -572 21 -618 42 -115 134 -212 238 -249 46 -17 95 -18 643 -18 326 0
612 3 637 7 64 11 115 40 174 99 42 42 91 119 102 161 19 73 22 169 22 661 0
519 -1 565 -18 622 -37 122 -107 207 -211 256 l-65 31 -610 1 c-453 1 -620 -2
-650 -11z"/>
<path d="M3221 5689 c-151 -28 -276 -171 -297 -342 -9 -72 -9 -1057 0 -1136
16 -143 120 -284 241 -331 l60 -22 616 0 c395 0 623 4 635 10 11 5 21 10 24
10 3 -1 24 8 46 20 93 47 170 152 197 267 21 88 20 1150 0 1231 -31 119 -115
222 -222 273 l-56 26 -600 1 c-330 0 -620 -3 -644 -7z"/>
<path d="M5207 3794 c-1 -1 -21 -4 -44 -8 -133 -18 -254 -143 -295 -306 -19
-75 -18 -1151 1 -1220 38 -136 128 -244 242 -286 39 -15 112 -17 644 -18 330
-1 618 2 640 6 138 29 252 150 288 304 11 47 13 178 12 629 -1 556 -2 571 -23
628 -47 129 -118 206 -232 252 -42 17 -89 18 -638 19 -326 1 -594 1 -595 0z"/>
<path d="M1247 3755 c-121 -33 -224 -147 -262 -290 -23 -88 -22 -1142 0 -1230
33 -125 104 -219 205 -271 l55 -29 645 0 645 0 50 25 c98 49 188 167 214 281
7 27 11 265 11 610 0 611 0 611 -55 719 -32 63 -106 134 -173 167 l-57 28
-615 1 c-473 1 -626 -2 -663 -11z"/>
<path d="M3179 3749 c-115 -41 -202 -136 -241 -262 -20 -68 -21 -87 -21 -636
0 -552 0 -568 21 -637 27 -88 71 -155 137 -209 96 -78 81 -76 786 -73 l624 3
54 30 c107 59 180 158 205 278 19 90 19 1137 0 1219 -28 119 -113 226 -218
275 l-61 28 -617 1 c-576 1 -620 0 -669 -17z"/>
<path d="M1233 1821 c-123 -42 -222 -161 -252 -300 -8 -37 -11 -229 -11 -617
1 -545 2 -565 22 -626 39 -116 109 -199 208 -247 l55 -26 635 0 635 0 58 27
c101 48 180 148 213 271 20 76 20 1158 0 1234 -38 144 -134 249 -261 288 -42
13 -141 15 -650 14 -547 0 -605 -2 -652 -18z"/>
<path d="M3183 1821 c-125 -43 -208 -135 -248 -276 -16 -54 -18 -117 -18 -625
0 -411 4 -577 12 -610 34 -124 119 -234 218 -282 l48 -23 640 0 640 0 56 27
c104 51 185 156 212 274 20 83 17 1190 -2 1244 -50 136 -105 204 -211 257
l-55 28 -620 2 c-574 2 -624 1 -672 -16z"/>
</g>
</svg>
