<svg version="1" xmlns="http://www.w3.org/2000/svg" width="284" height="284" viewBox="0 0 213.000000 213.000000"><path d="M19.2 32.2c-.7.7-1.2 1.7-1.2 2.3 0 .7 9.8 22.3 21.8 48.1l21.8 46.9 8.6.2c12.4.2 23.7 4.3 29.8 10.8 2.3 2.5 2.4 2.5 20.9 2.5 10.2 0 29-.3 41.7-.7l23.1-.6v-6.1c-.1-7.7 1.5-12.4 6.1-18.4l3.6-4.7-2.3-32c-1.3-17.6-2.4-32.1-2.5-32.2-.2-.3-29.5-3.3-32.1-3.3-1.7 0-6.6 5.7-22.1 25.7-18.4 23.9-19.9 26.1-19.5 29.3 1.3 11.4-.7 17.5-7.1 21.8-8.4 5.5-20 3.4-25.5-4.7-7.6-11.2-.7-26.6 12.6-27.9 6.1-.6 8.7.1 13.2 3.1l3.5 2.4 15.8-24.8c8.8-13.6 15.8-25.1 15.7-25.5-.2-.7-114.4-13-123.1-13.3-.9-.1-2.1.4-2.8 1.1zM.2 111.3l.3 73.2 2.7 5.7c3.7 7.9 9.8 14.2 17.7 18.1 6.1 3 7.4 3.2 18.1 3.5 11.2.2 11.4.2 9-1.5-6.8-4.8-12.3-11.1-15.6-17.9-3-6-3.7-8.6-4.1-15.8-.7-10.2 1.3-19 5.8-26.1 1.6-2.5 2.9-4.9 2.9-5.3 0-.4-7-24.2-15.7-52.9C6.1 41.7 5.5 40 2.8 39.1l-2.9-1 .3 73.2zM198.6 52.6c.3 2.2 1.8 15.1 3.3 28.7 1.6 13.6 3.1 25 3.4 25.3.2.3 1.6.2 3.1-.2l2.6-.6V77.9c0-26.5-.1-27.9-1.9-27.9-1 0-3.9-.3-6.4-.6l-4.5-.7.4 3.9zM153 160.6c-20.6 2.3-37.7 4.3-38 4.3-.3.1-.3 3.1-.2 6.8.8 15-6.6 29.3-19.8 38.5-2.4 1.7-.3 1.7 43 1.5l45.5-.2 5.7-2.7c7.9-3.7 14.2-9.8 18-17.6 2.9-5.9 3.3-7.7 3.6-16.8l.4-10.3-2.8-.7c-3.7-.9-12.1-5-12.9-6.4-.8-1.3.9-1.4-42.5 3.6z"/></svg>