<?xml version="1.0" encoding="utf-8"?>
<!-- Generator: Adobe Illustrator 22.1.0, SVG Export Plug-In . SVG Version: 6.00 Build 0)  -->
<svg version="1.1" id="Layer_1" xmlns="http://www.w3.org/2000/svg" xmlns:xlink="http://www.w3.org/1999/xlink" x="0px" y="0px"
	 viewBox="0 0 730 211" style="enable-background:new 0 0 730 211;" xml:space="preserve">
<style type="text/css">
	.st0{fill:#FFFFFF;}
</style>
<path class="st0" d="M367.2,53h-64.9v23.5h64.9v52.8h-64.9v29h75.4v52.8H229.8V-0.1h147.9"/>
<path class="st0" d="M552.1,53h-84.8v105.3h26.2V87.4h70.3v123.7H423.6c-15.7,0-26.6-10.9-26.6-26.2V26.2
	c0-15.4,10.9-26.2,26.6-26.2h139.1"/>
<path class="st0" d="M719.8,53h-64.9v23.5h64.9v52.8h-64.9v29h75.4v52.8H585V-0.1h145.4"/>
<g>
	<path class="st0" d="M15,11.8l107.6,6.5c-1.6-5.5,0.7-11.5,5.9-14.4c6-3.4,13.7-1.2,17,4.8c3.4,6,1.2,13.7-4.8,17
		c-5,2.8-11.2,1.8-15-2.2L20.9,23.3C21,27,19.6,30.7,17,33.5l45,96.1c15-3.3,30.8,1.6,41.3,12.9l83.1-1.4c-2.7-10.6,0.9-22,9.3-29.2
		l-5.2-73c-10.5,4.8-20.7,1.1-26.5-5.9l-48.8,64.1c4.9,8.8,1.8,19.8-7,24.7c-8.8,4.9-19.8,1.8-24.7-7c-4.9-8.8-1.8-19.8,7-24.7
		c7.8-4.3,17.3-2.4,22.8,4.2l46.1-70.7c-1.5-10.3,1-18.4,9.1-23.7h-132c-9.8,0-18.6,3.8-25.2,10C12.7,10.3,13.9,11,15,11.8z"/>
	<path class="st0" d="M196.2,35.3l8.5,71.4c2.1-0.8,4.2-1.2,6.3-1.5V36.8c0-8.4-2.8-16.1-7.6-22.3C204.9,22.1,202.1,30.1,196.2,35.3
		z"/>
	<path class="st0" d="M33.3,193.6c-9-16.1-6.7-35.4,4.2-48.9L5.7,38.2c-2.1-0.1-4.1-0.6-5.9-1.6c0,0.1,0,0.1,0,0.2v137.4
		c0,20.4,16.5,37,37,37h14.8C44.1,207.4,37.6,201.4,33.3,193.6z"/>
	<path class="st0" d="M194.5,154.9l-80.2,8.9c3.6,18.1-4.6,37.1-21.5,46.6c-0.5,0.3-1,0.5-1.5,0.8h82.9c20.4,0,37-16.5,37-37v-11.4
		C204.9,162,199,159.3,194.5,154.9z"/>
</g>
</svg>
